<svg xmlns="http://www.w3.org/2000/svg" width="500" height="500" fill="none"><path fill="#FCB400" d="M226.225 67.712 59.349 136.578c-9.28 3.831-9.183 16.977.155 20.668l167.574 66.275a62.325 62.325 0 0 0 45.843 0l167.577-66.275c9.335-3.691 9.434-16.837.151-20.668L273.776 67.712a62.337 62.337 0 0 0-47.551 0Z"/><path fill="#18BFFF" d="M264 260.375v166.303c0 7.91 7.997 13.326 15.368 10.412l187.543-72.609A11.197 11.197 0 0 0 474 354.07V187.767c0-7.911-7.997-13.327-15.368-10.412l-187.543 72.608A11.2 11.2 0 0 0 264 260.375Z"/><path fill="#F82B60" d="m220.453 268.45-55.288 26.863-5.614 2.73-116.71 56.274C35.443 357.909 26 352.483 26 344.213V187.784c0-2.992 1.525-5.575 3.57-7.521a12.71 12.71 0 0 1 2.824-2.131c2.789-1.684 6.767-2.133 10.15-.787l176.98 70.564c8.996 3.591 9.703 16.276.929 20.541Z"/><path fill="#000" fill-opacity=".25" d="m220.439 268.036-55.417 26.742-135.91-114.531a12.723 12.723 0 0 1 2.83-2.122c2.796-1.676 6.783-2.124 10.173-.784l177.393 70.246c9.017 3.576 9.725 16.203.931 20.449Z"/></svg>
