<svg xmlns="http://www.w3.org/2000/svg" width="46" height="46" fill="none"><path fill="#1E61F0" d="M20.333 10.732c-.127-.162-.262-.252-.425-.252a.7.7 0 0 0-.325.108c-1.202.94-2.837 4.925-4.183 10.184l1.194.008c2.35.027 4.779.054 7.175.09-.634-2.405-1.23-4.465-1.78-6.136-.806-2.429-1.347-3.523-1.656-4.002Z"/><path fill="#1E61F0" d="M23 .603C10.575.603.5 10.678.5 23.103s10.075 22.5 22.5 22.5 22.5-10.075 22.5-22.5S35.425.603 23 .603Zm16.608 22.23a1.304 1.304 0 0 1-.433.676l-.081.054-.027.02-.054.035-.046.027c-.171.09-.363.135-.56.135H27.743c.081.352.181.758.279 1.194.587 2.52 2.133 9.225 3.785 9.225h.09c1.283 0 1.944-1.86 3.39-5.938l.018-.046c.236-.65.498-1.391.777-2.177l.073-.198a.516.516 0 0 1 .994.182c0 .054-.008.1-.019.144l-.062.197c-.154.488-.306 1.148-.498 1.917-.858 3.56-2.16 8.938-5.486 8.938h-.027c-2.15-.02-3.433-3.453-3.985-4.925-1.03-2.748-1.806-5.667-2.556-8.502h-9.794l-2.033 6.514-.027-.027c-.307.48-.948.623-1.428.317a1.027 1.027 0 0 1-.479-.867v-.035l.127-.742c.28-1.67.623-3.417 1.002-5.169H7.73l-.019-.019a1.559 1.559 0 0 1-.054-3.073c.163-.018.325-.027.488-.018h.198c1.31.018 2.702.046 4.237.062 2.16-8.783 4.663-13.248 7.446-13.256 2.981 0 5.196 6.785 6.967 13.427l.008.027c3.633.073 7.519.181 11.285.452l.163.019c.062 0 .117.008.181.019h.019l.019.008h.008c.644.127 1.069.76.933 1.402Z"/></svg>
