<svg xmlns="http://www.w3.org/2000/svg" width="97" height="90" fill="none"><path fill="url(#a)" d="M75.733 47.358c-11.626 0-21.049 9.423-21.049 21.047 0 11.626 9.423 21.05 21.049 21.05 11.624 0 21.047-9.424 21.047-21.05 0-11.624-9.423-21.047-21.047-21.047Zm-54.685.001C9.424 47.36 0 56.781 0 68.406 0 80.03 9.424 89.454 21.048 89.454c11.625 0 21.049-9.423 21.049-21.048 0-11.625-9.424-21.047-21.05-21.047Zm48.39-26.312c0 11.625-9.423 21.05-21.047 21.05-11.626 0-21.049-9.425-21.049-21.05C27.342 9.425 36.765 0 48.391 0c11.624 0 21.046 9.424 21.046 21.047Z"/><defs><radialGradient id="a" cx="0" cy="0" r="1" gradientTransform="matrix(64.1297 0 0 59.2754 48.39 48.889)" gradientUnits="userSpaceOnUse"><stop stop-color="#FFB900"/><stop offset=".6" stop-color="#F95D8F"/><stop offset=".999" stop-color="#F95353"/></radialGradient></defs></svg>
