<svg xmlns="http://www.w3.org/2000/svg" width="46" height="49" fill="none"><path fill="#F46A54" d="M41.468.317H4.528A4.035 4.035 0 0 0 .5 4.334v40.178a4.037 4.037 0 0 0 4.03 4.018h36.94a4.036 4.036 0 0 0 4.03-4.018v-1.874a479.036 479.036 0 0 1-.135-9.71c0-1.272-.94-2.344-2.149-2.344-1.344 0-2.216.804-2.888 1.473-2.015 1.809-5.038 2.144-7.658 1.675-1.207-.269-2.35-.603-3.289-1.205-2.889-1.675-4.769-4.822-4.769-8.17s1.88-6.428 4.768-8.17c1.008-.603 2.15-.938 3.291-1.205 2.553-.469 5.642-.135 7.657 1.674.74.67 1.612 1.473 2.888 1.473 1.209 0 2.149-1.072 2.149-2.344 0-2.21.067-7.299.135-9.71v-1.74c0-2.21-1.815-4.018-4.032-4.018Z"/></svg>
