<svg xmlns="http://www.w3.org/2000/svg" width="54" height="70" fill="none"><g filter="url(#a)"><path fill="#fff" d="M13.64 31.756h26.72v4.922H13.64v-4.922ZM13.64 40.194h19.688v4.922H13.641v-4.922Z"/><path fill="#1967D2" d="m34.031 15.585 8.483 1.603 6.986-1.603L34.031.114 31.897 7.45l2.134 8.136Z"/><path fill="#fff" d="M13.64 23.319h26.72v4.922H13.64v-4.922Z"/><path fill="#4285F4" d="M34.031 15.585V.114H8.72A4.218 4.218 0 0 0 4.5 4.336v53.437a4.218 4.218 0 0 0 4.219 4.219H45.28a4.218 4.218 0 0 0 4.219-4.219V15.584H34.031Zm-1.406 28.828H14.344v-3.516h18.281v3.516Zm7.031-8.438H14.344V32.46h25.312v3.516Zm0-8.437H14.344v-3.516h25.312v3.516Z"/></g><defs><filter id="a" width="53" height="69.875" x=".5" y=".116" color-interpolation-filters="sRGB" filterUnits="userSpaceOnUse"><feFlood flood-opacity="0" result="BackgroundImageFix"/><feColorMatrix in="SourceAlpha" result="hardAlpha" values="0 0 0 0 0 0 0 0 0 0 0 0 0 0 0 0 0 0 127 0"/><feOffset dy="4"/><feGaussianBlur stdDeviation="2"/><feComposite in2="hardAlpha" operator="out"/><feColorMatrix values="0 0 0 0 0 0 0 0 0 0 0 0 0 0 0 0 0 0 0.25 0"/><feBlend in2="BackgroundImageFix" result="effect1_dropShadow_3120_2942"/><feBlend in="SourceGraphic" in2="effect1_dropShadow_3120_2942" result="shape"/></filter></defs></svg>
