<svg xmlns="http://www.w3.org/2000/svg" width="29" height="30" fill="none"><path fill="#FF7A59" d="M21.722 9.752V6.225a2.716 2.716 0 0 0 1.566-2.448v-.081c0-1.5-1.216-2.716-2.716-2.716h-.081a2.716 2.716 0 0 0-2.716 2.716v.081a2.716 2.716 0 0 0 1.566 2.448v3.527a7.69 7.69 0 0 0-3.657 1.61L6.011 3.828c.069-.249.105-.505.109-.762A3.06 3.06 0 1 0 3.056 6.12a3.027 3.027 0 0 0 1.507-.41l9.525 7.412a7.714 7.714 0 0 0 .118 8.69l-2.897 2.898a2.486 2.486 0 0 0-.724-.118 2.514 2.514 0 1 0 2.515 2.515 2.48 2.48 0 0 0-.118-.724l2.866-2.867a7.729 7.729 0 1 0 5.874-13.764Zm-1.188 11.6a3.965 3.965 0 1 1 0-7.927 3.965 3.965 0 0 1 .004 7.925"/></svg>
