<svg xmlns="http://www.w3.org/2000/svg" width="74" height="74" fill="none"><path fill="#000" d="M63.589 40.383a2.46 2.46 0 0 1-.713 1.732 2.421 2.421 0 0 1-3.438 0 2.46 2.46 0 0 1-.712-1.732V18.494c0-.65.256-1.273.712-1.732a2.422 2.422 0 0 1 3.438 0 2.46 2.46 0 0 1 .713 1.732v21.889Zm-.844 15.166c-.322.324-9.363 7.917-25.94 7.917-16.575 0-25.556-7.553-25.938-7.877a2.406 2.406 0 0 1-.842-1.642 2.427 2.427 0 0 1 .56-1.76 2.42 2.42 0 0 1 3.416-.263c.14.102 8.218 6.703 22.785 6.703 14.566 0 22.704-6.642 22.784-6.703a2.459 2.459 0 0 1 3.436.264 2.422 2.422 0 0 1-.241 3.381l-.02-.02ZM10.003 18.494a2.478 2.478 0 0 1 .809-1.699 2.44 2.44 0 0 1 1.763-.63c.6.035 1.165.292 1.588.722.423.43.673 1.002.702 1.607v21.848a2.46 2.46 0 0 1-.712 1.733 2.422 2.422 0 0 1-3.438 0 2.46 2.46 0 0 1-.712-1.733V18.494Zm12.196-4.86a2.478 2.478 0 0 1 .809-1.699 2.44 2.44 0 0 1 1.762-.63c.6.035 1.166.292 1.59.722a2.46 2.46 0 0 1 .701 1.607v32.398a2.46 2.46 0 0 1-.712 1.732 2.422 2.422 0 0 1-3.438 0 2.46 2.46 0 0 1-.712-1.732V13.634Zm12.256-1.214c0-.65.256-1.273.712-1.733a2.422 2.422 0 0 1 3.438 0 2.46 2.46 0 0 1 .712 1.733v35.232a2.46 2.46 0 0 1-.712 1.732 2.422 2.422 0 0 1-3.438 0 2.46 2.46 0 0 1-.712-1.732V12.42Zm12.055 1.214c0-.65.256-1.273.712-1.732a2.422 2.422 0 0 1 3.438 0 2.46 2.46 0 0 1 .713 1.732v32.398a2.46 2.46 0 0 1-.713 1.732 2.421 2.421 0 0 1-3.438 0 2.46 2.46 0 0 1-.712-1.732V13.634ZM64.251.27H9.441a9.021 9.021 0 0 0-3.485.676 9.078 9.078 0 0 0-2.962 1.97 9.156 9.156 0 0 0-1.987 2.962 9.215 9.215 0 0 0-.709 3.504v54.671a9.215 9.215 0 0 0 .709 3.504 9.156 9.156 0 0 0 1.987 2.963 9.078 9.078 0 0 0 2.962 1.97 9.02 9.02 0 0 0 3.484.675h54.811a9.022 9.022 0 0 0 3.48-.674 9.078 9.078 0 0 0 2.96-1.964 9.154 9.154 0 0 0 1.988-2.956 9.213 9.213 0 0 0 .715-3.498V9.383a9.214 9.214 0 0 0-.707-3.5 9.157 9.157 0 0 0-1.982-2.96A9.075 9.075 0 0 0 67.75.951 9.02 9.02 0 0 0 64.272.27"/></svg>
