<svg xmlns="http://www.w3.org/2000/svg" xml:space="preserve" viewBox="0 0 550 226"><path fill="#1d1e20" d="M384 227H1V1h550v226H384M108.452 114.103c-3.141 3.624-6.192 7.333-9.484 10.814-.906.958-2.532 1.235-3.696.928V63.85l-19.966 4.428c5.549 3.293 6.75 7.587 6.72 12.86-.116 19.487-.042 38.975-.048 58.463-.002 6.079 1.022 12.552-5.987 16.095h24.72c-1.69-2.502-4.385-4.745-4.657-7.251-.618-5.7-.045-11.528.682-17.646 1.801-1.013 3.602-2.026 5.646-2.38 4.282 7.047 8.233 14.328 13.003 21.028 1.989 2.794 5.718 4.349 9.428 6.702h46.3c-8.016-2.164-8.5-8.146-8.472-14.723.102-23.812.047-47.624.025-71.436-.002-1.89-.211-3.78-.353-6.151l-19.668 4.381c5.711 2.996 6.554 7.437 6.53 12.61-.098 20.814.006 41.629-.065 62.443-.034 9.963-4.671 13.128-14.618 9.397-4.54-6.51-9.152-12.97-13.602-19.541-4.084-6.03-9.458-9.155-17.148-8.857 2.579-3.34 5.159-6.68 8.256-10.399l20.833-17.785h-21.778c5.044 5.764 5.12 7.688.857 13.731-.958 1.358-1.961 2.684-3.458 4.283m235.649 61.164c1.611-2.812 3.697-5.457 4.757-8.463 6.36-18.044 12.41-36.196 18.726-54.256 2.257-6.451 5.101-12.645 11.688-16.345h-19.844c6.774 3.792 8.034 5.965 6.003 12.6-3.505 11.448-7.54 22.733-11.36 34.085-.244.729-.545 1.44-1.13 2.968-4.73-13.145-8.923-24.543-12.914-36.01-1.726-4.96-2.756-10.008 3.84-13.687h-26.103c2.711 4.532 6.125 8.976 8.21 13.976 4.735 11.359 8.78 23.004 13.174 34.507 3.872 10.134 9.062 20.04 4.157 31.304-1.08.942-2.157 1.888-3.24 2.826-2.845 2.46-6.029 2.98-9.078.75-2.922-2.138-1.802-4.813-.446-7.548 2.191-4.42 1.162-7.665-2.522-9.047-4.333-1.626-8.973.694-10.257 5.128-1.782 6.15 2.526 13.26 9.375 15.474 7.582 2.45 14.428-.646 16.964-8.262m-104.966-53.818c3.59 10.034 7.316 20.023 10.69 30.128 1.094 3.277 2.386 4.883 6.192 4.79 3.552-.087 5.225-1.093 6.38-4.568 4.463-13.43 8.905-26.893 14.173-40.015 1.942-4.837 5.377-9.803 9.502-12.863 5.914-4.387 11.544-.78 11.606 6.58.093 10.994.017 21.99.033 32.986.01 6.408.801 13.071-7.524 17.26h26.467c-5.58-3.647-5.61-9.005-5.595-14.433.035-13.328.02-26.656 0-39.984-.004-1.752-.16-3.505-.246-5.26H268.68c7.413 5.532 7.777 6.848 4.656 15.417-2.394 6.573-4.792 13.143-7.186 19.715-1.557 4.275-3.11 8.55-5.182 14.253-4.665-13.584-8.862-25.618-12.915-37.701-1.531-4.565-1.514-8.855 5.172-11.663H225.88c2.763 4.154 5.863 8.161 8.225 12.563 2.03 3.786 3.22 8.024 5.03 12.795m159.998 36.09c13.062 1.84 23.357-2.926 30.458-13.775 7.18-10.97 7.521-22.747.938-34.06-6.245-10.734-15.809-16.44-28.607-15.678-14.69.874-26.895 13.36-28.27 28.854-1.473 16.61 8.545 30.63 25.481 34.66m-197.25-60.735c4.494 1.29 6.988 4.598 7.896 8.857.79 3.702.686 7.586 1.167 11.366.413 3.25-1.295 4.223-4.09 4.952-6.588 1.715-13.27 3.312-19.553 5.85-3.69 1.492-7.353 4.153-9.872 7.234-6.602 8.076-2.513 19.51 7.595 22.048 8.76 2.199 16.503.131 22.832-6.437.837-.869 1.13-2.26 1.675-3.41 5.044 10.756 11.641 13.304 20.756 8.362-6.084-1.854-6.368-6.543-6.334-11.518.061-9.155.28-18.326-.143-27.464-.41-8.863-2.963-17.083-12.296-20.513-10.321-3.794-20.33-3.237-29.007 4.46-3.554 3.153-5.488 7.111-4.757 12 .72 4.821 4.51 7.108 9.13 5.61 4.153-1.346 5.078-3.826 3.656-9.802-2.04-8.568 1.563-12.61 11.345-11.595m255.616-32.877h-26.102V95.54H477.3c-2.528-4.43-4.567-8.365-6.958-12.072-1.656-2.567-1.734-4.69-.047-7.285 2.403-3.695 4.445-7.624 7.102-12.255h-19.898M311.621 83.153c1.437-4.347.623-8.493-3.624-10.128-2.59-.997-6.658-.547-9.065.905-4.058 2.45-3.882 8.45-.473 11.778 3.756 3.668 8.66 2.935 13.162-2.555z"/><path fill="#fff" d="M239.011 121.083c-1.686-4.405-2.875-8.643-4.906-12.429-2.362-4.402-5.462-8.409-8.225-12.563h27.345c-6.686 2.808-6.703 7.098-5.172 11.663 4.053 12.083 8.25 24.117 12.915 37.7 2.073-5.701 3.625-9.977 5.182-14.252 2.394-6.572 4.792-13.142 7.186-19.715 3.12-8.569 2.757-9.885-4.656-15.416h42.133c.085 1.754.242 3.507.245 5.26.021 13.327.036 26.655 0 39.983-.014 5.428.016 10.786 5.596 14.433h-26.467c8.325-4.189 7.534-10.852 7.524-17.26-.016-10.996.06-21.992-.033-32.987-.062-7.36-5.692-10.966-11.606-6.579-4.125 3.06-7.56 8.026-9.502 12.863-5.268 13.122-9.71 26.585-14.173 40.015-1.155 3.475-2.828 4.481-6.38 4.568-3.806.093-5.098-1.513-6.192-4.79-3.374-10.105-7.1-20.094-10.814-30.494zM398.713 157.452c-16.516-3.942-26.534-17.963-25.06-34.572 1.374-15.494 13.579-27.98 28.27-28.854 12.797-.761 22.36 4.944 28.606 15.678 6.583 11.313 6.242 23.09-.938 34.06-7.101 10.849-17.396 15.616-30.878 13.688m-8.853-19.13c1.874 4.228 3.152 8.873 5.753 12.593 4.46 6.38 11.37 6.483 16.502.655 1.94-2.202 3.602-4.865 4.644-7.602 4.64-12.185 4.473-24.451-.465-36.515-2.326-5.683-5.44-11.34-12.614-11.063-7 .27-10.097 5.923-12.288 11.641-3.672 9.584-3.924 19.487-1.532 30.29zM201.471 96.699c-9.37-.91-12.973 3.133-10.933 11.7 1.422 5.977.497 8.457-3.656 9.804-4.62 1.497-8.41-.79-9.13-5.61-.731-4.89 1.203-8.848 4.757-12 8.678-7.698 18.686-8.255 29.007-4.461 9.333 3.43 11.885 11.65 12.296 20.513.424 9.138.204 18.309.143 27.464-.034 4.975.25 9.664 6.334 11.518-9.115 4.942-15.712 2.394-20.756-8.362-.545 1.15-.838 2.541-1.675 3.41-6.33 6.568-14.071 8.636-22.832 6.437-10.108-2.537-14.197-13.972-7.595-22.048 2.52-3.08 6.181-5.742 9.872-7.233 6.283-2.54 12.965-4.136 19.552-5.851 2.796-.729 4.504-1.702 4.09-4.952-.48-3.78-.377-7.664-1.166-11.366-.908-4.26-3.402-7.566-8.308-8.963m-11.553 50.676c2.882 4.162 6.938 4.987 11.432 3.564 4.884-1.547 8.754-4.683 9.265-10.006.533-5.546.12-11.182.12-17.91-5.163 2.151-9.815 3.754-14.154 5.97-7.819 3.993-9.79 9.34-6.663 18.382zM134.96 153.163c9.479 3.24 14.116.074 14.15-9.889.07-20.814-.033-41.63.065-62.444.024-5.172-.819-9.613-6.53-12.609l19.668-4.381c.142 2.371.351 4.26.353 6.15.022 23.813.077 47.625-.025 71.437-.028 6.577.456 12.56 8.471 14.723-15.433 0-30.866 0-46.334-.3 3.372-1.096 6.777-1.892 10.183-2.687zM458 63.928h19.397c-2.657 4.631-4.7 8.56-7.102 12.255-1.687 2.595-1.609 4.718.047 7.285 2.391 3.707 4.43 7.641 6.958 12.072h-45.903V63.928H458zM344.027 176.058c4.183-11.375-1.007-21.282-4.879-31.416-4.394-11.503-8.44-23.148-13.175-34.507-2.084-5-5.498-9.444-8.21-13.976h26.104c-6.596 3.679-5.566 8.726-3.84 13.686 3.991 11.468 8.184 22.866 12.914 36.011.585-1.528.886-2.239 1.13-2.968 3.82-11.352 7.855-22.637 11.36-34.085 2.031-6.635.77-8.808-6.003-12.6h19.844c-6.587 3.7-9.431 9.894-11.688 16.345-6.316 18.06-12.366 36.212-18.726 54.256-1.06 3.006-3.146 5.65-4.823 8.829-.065.366-.008.425-.008.425zM96.097 131.142c-.088 5.776-.66 11.605-.043 17.304.272 2.506 2.968 4.749 4.658 7.251H75.99c7.009-3.543 5.985-10.016 5.987-16.095.006-19.488-.068-38.976.047-58.464.031-5.272-1.17-9.566-6.719-12.86l19.966-4.427c0 21.111 0 41.552-.117 62.823.236 2.042.59 3.255.942 4.468z"/><path fill="#fff" d="M134.726 152.917c-3.17 1.041-6.576 1.837-10.334 2.815-3.29-1.935-7.018-3.49-9.007-6.284-4.77-6.7-8.721-13.981-12.98-21.597.55-1.34 1.077-2.11 1.604-2.88 7.423-.996 12.797 2.13 16.88 8.159 4.45 6.57 9.062 13.032 13.837 19.787zM343.94 175.97c-2.375 6.913-9.22 10.01-16.803 7.559-6.85-2.214-11.157-9.323-9.375-15.474 1.284-4.434 5.924-6.754 10.257-5.128 3.684 1.382 4.713 4.628 2.522 9.047-1.356 2.735-2.476 5.41.446 7.547 3.05 2.23 6.233 1.712 9.078-.75 1.083-.937 2.16-1.883 3.6-2.77.362.057.305-.002.275-.03zM311.446 83.473c-4.328 5.17-9.23 5.903-12.987 2.235-3.41-3.329-3.585-9.329.473-11.778 2.407-1.452 6.475-1.902 9.065-.905 4.247 1.635 5.061 5.781 3.45 10.448zM108.966 113.844c.983-1.34 1.986-2.666 2.944-4.024 4.263-6.043 4.187-7.967-.857-13.73h21.778c-6.753 5.764-13.793 11.774-21.72 17.875-1.308.02-1.726-.05-2.145-.12z"/><path fill="#fff" d="M108.71 113.974c.675-.06 1.093.011 2.14.18-1.95 3.439-4.529 6.779-6.975 10.468-.393 1.12-.92 1.89-1.592 2.9-1.945 1.252-3.746 2.265-5.866 3.45-.673-1.043-1.026-2.256-1.328-3.85 1.347-.97 2.973-1.247 3.88-2.205 3.291-3.481 6.342-7.19 9.74-10.943z"/><path fill="#1d1e20" d="M389.762 137.914c-2.294-10.396-2.042-20.3 1.63-29.883 2.191-5.718 5.288-11.371 12.288-11.64 7.174-.277 10.288 5.38 12.614 11.062 4.938 12.064 5.104 24.33.465 36.515-1.042 2.737-2.704 5.4-4.644 7.602-5.132 5.828-12.043 5.724-16.502-.655-2.601-3.72-3.88-8.365-5.851-13.001zM189.726 147.041c-2.936-8.707-.964-14.055 6.855-18.048 4.34-2.216 8.991-3.819 14.153-5.97 0 6.728.414 12.364-.119 17.91-.511 5.323-4.381 8.46-9.265 10.006-4.494 1.423-8.55.598-11.624-3.898z"/></svg>
