<?xml version="1.0" encoding="UTF-8"?>
<svg id="Layer_1" data-name="Layer 1" xmlns="http://www.w3.org/2000/svg" viewBox="0 0 255.93 255.93">
  <defs>
    <style>
      .cls-1 {
        fill: #316bfe;
      }

      .cls-1, .cls-2 {
        stroke-width: 0px;
      }

      .cls-2 {
        fill: #fefefe;
      }
    </style>
  </defs>
  <rect class="cls-1" width="255.93" height="255.93" rx="42.88" ry="42.88"/>
  <g>
    <path class="cls-2" d="m137.18,189.26c-13.48,0-26.97.07-40.45-.02-15.58-.11-27.59-11.88-27.66-27.4-.14-27.63.03-55.27-.09-82.9-.03-6.04,2.74-8.51,8.52-8.25,1.83.08,3.67.12,5.49,0,6.19-.42,8.71,2.48,8.67,8.59-.13,21.47-.06,42.95-.05,64.43,0,17.05,5.98,22.96,23.18,22.96,21.31,0,42.62.13,63.93-.07,6.44-.06,9.27,2.57,8.88,8.92-.12,1.99-.08,4-.01,5.99.2,5.54-2.65,7.8-7.96,7.78-14.15-.05-28.3-.02-42.45-.02Z"/>
    <path class="cls-2" d="m151.57,70.7c9.48,0,18.95.06,28.43-.02,5.24-.04,7.46,2.54,7.61,7.62.44,14.62.13,14.99-14.69,14.99-16.62,0-33.25-.1-49.87.05-5.95.05-8.55-2.71-8.57-8.4,0-1.83.02-3.66,0-5.49-.1-5.89,2.43-8.93,8.67-8.8,9.47.19,18.95.05,28.43.05Z"/>
    <path class="cls-2" d="m145.65,141.27c-7.82,0-15.64-.06-23.46.02-4.98.05-7.34-2.55-7.66-7.24-.18-2.65-.17-5.33-.01-7.98.27-4.65,2.52-7.39,7.52-7.38,15.81.03,31.62.04,47.43,0,5.25-.01,7.52,2.78,7.64,7.73.06,2.49.1,5,0,7.49-.2,4.74-2.52,7.39-7.48,7.37-7.99-.02-15.98,0-23.96,0Z"/>
  </g>
</svg>