<svg xmlns="http://www.w3.org/2000/svg" width="65" height="69" fill="none"><path fill="#231F20" fill-rule="evenodd" d="M48.894 32.594c.504-.06.986-.063 1.43 0 .256-.589.3-1.603.07-2.707-.343-1.642-.808-2.635-1.767-2.48-.96.154-.995 1.344-.652 2.985.193.924.537 1.713.92 2.202ZM40.658 33.901c.686.301 1.108.501 1.273.326.107-.108.075-.316-.09-.584-.338-.552-1.035-1.113-1.775-1.428-1.511-.651-3.315-.435-4.706.565-.46.336-.895.802-.832 1.085.02.091.088.16.25.183.378.043 1.701-.625 3.226-.719 1.075-.066 1.967.27 2.653.572M39.277 34.684c-.894.14-1.387.436-1.703.71-.27.236-.438.497-.436.68 0 .087.038.138.068.163.04.036.09.056.147.056.202 0 .655-.181.655-.181 1.244-.446 2.065-.391 2.878-.3.45.051.663.079.76-.075.03-.045.065-.14-.025-.286-.209-.34-1.112-.914-2.343-.767M46.113 37.58c.607.298 1.276.181 1.493-.261.218-.442-.098-1.043-.705-1.342-.607-.298-1.275-.18-1.493.262-.218.443.098 1.043.705 1.341ZM50.016 34.164c-.493-.008-.903.533-.914 1.21-.012.676.38 1.23.872 1.24.493.008.902-.534.914-1.21.011-.677-.38-1.231-.872-1.24ZM16.892 46.363c-.122-.154-.324-.108-.52-.062-.136.033-.29.068-.46.066-.362-.007-.67-.162-.842-.427-.224-.345-.211-.86.036-1.448l.116-.264c.396-.888 1.057-2.372.314-3.787-.56-1.066-1.471-1.729-2.568-1.868-1.053-.134-2.137.257-2.829 1.02-1.09 1.202-1.261 2.84-1.05 3.42.077.21.198.27.285.282.186.025.46-.11.632-.572l.05-.15c.076-.245.218-.7.452-1.065.282-.44.72-.743 1.236-.854a1.978 1.978 0 0 1 1.51.282c.764.5 1.058 1.436.732 2.33-.169.462-.443 1.345-.383 2.071.123 1.47 1.027 2.06 1.838 2.123.79.03 1.342-.414 1.481-.738.082-.191.013-.308-.032-.358" clip-rule="evenodd"/><path fill="#231F20" fill-rule="evenodd" d="M24.398 19.373c2.576-2.976 5.745-5.563 8.585-7.015.098-.05.202.056.15.152-.226.409-.66 1.284-.798 1.947a.116.116 0 0 0 .179.121c1.767-1.204 4.84-2.494 7.535-2.66.116-.007.172.141.08.212-.41.314-.858.75-1.186 1.19a.115.115 0 0 0 .09.183c1.893.014 4.561.676 6.3 1.652.118.066.034.293-.097.264-2.632-.604-6.939-1.061-11.414.03-3.994.975-7.043 2.48-9.267 4.097-.113.082-.247-.067-.156-.172l-.001-.001Zm12.825 28.83.001.002.002.003-.003-.005Zm10.62 1.253a.206.206 0 0 0 .12-.205.194.194 0 0 0-.212-.173s-5.496.813-10.687-1.087c.566-1.838 2.069-1.175 4.341-.991 4.096.244 7.768-.355 10.482-1.133 2.35-.675 5.439-2.005 7.837-3.899.809 1.777 1.095 3.733 1.095 3.733s.626-.112 1.15.21c.494.304.856.937.609 2.572-.505 3.056-1.803 5.536-3.986 7.818a16.437 16.437 0 0 1-4.788 3.578c-.98.515-2.023.96-3.126 1.32-8.23 2.688-16.653-.267-19.368-6.612-.217-.477-.4-.976-.545-1.498-1.156-4.182-.174-9.198 2.896-12.356v-.002c.19-.2.383-.438.383-.736 0-.249-.159-.512-.296-.699-1.075-1.558-4.796-4.213-4.049-9.352.537-3.692 3.765-6.291 6.775-6.137l.763.043c1.305.078 2.442.245 3.516.29 1.797.078 3.413-.183 5.328-1.778.645-.538 1.164-1.005 2.04-1.153.092-.016.32-.098.779-.077.467.025.912.153 1.311.42 1.535 1.02 1.752 3.494 1.832 5.303.045 1.032.17 3.531.213 4.249.097 1.64.529 1.87 1.401 2.158.49.162.946.282 1.618.47 2.03.571 3.235 1.15 3.995 1.893.453.465.663.959.728 1.43.24 1.747-1.356 3.905-5.582 5.867-4.619 2.144-10.223 2.686-14.095 2.255l-1.356-.154c-3.097-.417-4.864 3.585-3.005 6.328 1.198 1.768 4.461 2.917 7.726 2.918 7.485 0 13.238-3.195 15.378-5.956l.171-.243c.106-.16.019-.246-.113-.157-1.748 1.197-9.514 5.947-17.822 4.517 0 0-1.01-.166-1.93-.524-.733-.285-2.266-.99-2.452-2.562 6.704 2.073 10.925.113 10.925.113ZM11.02 33.524c-2.332.453-4.387 1.775-5.643 3.6-.751-.626-2.15-1.838-2.398-2.311-2.006-3.81 2.19-11.216 5.12-15.399 7.244-10.336 18.588-18.16 23.84-16.74.854.241 3.681 3.52 3.681 3.52s-5.25 2.912-10.117 6.973c-6.56 5.05-11.515 12.391-14.484 20.357h.001Zm3.918 17.48c-.353.061-.713.085-1.077.076-3.508-.095-7.297-3.253-7.673-6.998-.416-4.14 1.7-7.325 5.445-8.081.447-.09.988-.143 1.572-.112 2.098.115 5.19 1.726 5.896 6.298.626 4.048-.367 8.17-4.163 8.817Zm47.52-7.33c-.03-.107-.226-.822-.495-1.684-.269-.863-.547-1.47-.547-1.47 1.079-1.615 1.098-3.06.954-3.878-.153-1.014-.575-1.878-1.426-2.771s-2.592-1.808-5.038-2.495l-1.283-.357c-.006-.052-.067-3.025-.123-4.301-.04-.923-.12-2.363-.566-3.782-.533-1.92-1.46-3.6-2.618-4.674 3.196-3.313 5.191-6.963 5.186-10.094-.01-6.02-7.404-7.843-16.517-4.07l-1.93.82c-.01-.008-3.492-3.425-3.544-3.47C24.121-7.616-8.363 28.492 2.022 37.262l2.27 1.923c-.589 1.525-.82 3.273-.631 5.151.242 2.414 1.487 4.727 3.505 6.515 1.916 1.697 4.434 2.772 6.878 2.77 4.042 9.313 13.277 15.027 24.104 15.349 11.615.345 21.365-5.105 25.45-14.895.268-.687 1.402-3.783 1.402-6.516 0-2.747-1.553-3.885-2.542-3.885" clip-rule="evenodd"/></svg>
