<svg xmlns="http://www.w3.org/2000/svg" width="400" height="400" fill="none"><path fill="#fff" d="M33.947 18.124 254.183 1.906c27.044-2.32 34.003-.766 51.001 11.582l70.302 49.411c11.6 8.497 15.466 10.81 15.466 20.073v271.003c0 16.984-6.187 27.028-27.819 28.565l-255.757 15.444c-16.238.775-23.967-1.54-32.47-12.355l-51.772-67.171C13.858 306.095 10 296.844 10 286.022V45.137c0-13.89 6.189-25.475 23.947-27.013Z"/><path fill="#000" fill-rule="evenodd" d="M254.183 1.906 33.947 18.124C16.19 19.662 10 31.247 10 45.136v240.886c0 10.822 3.858 20.073 13.134 32.436l51.772 67.171c8.503 10.815 16.232 13.13 32.47 12.355l255.757-15.444c21.632-1.537 27.819-11.581 27.819-28.565V82.972c0-8.78-3.474-11.316-13.714-18.792l-1.752-1.281-70.302-49.411C288.186 1.14 281.227-.414 254.183 1.906Zm-141.008 76.62c-20.881 1.41-25.626 1.731-37.484-7.902L45.536 46.69c-3.075-3.095-1.533-6.956 6.189-7.721l211.731-15.443c17.768-1.548 27.039 4.639 33.997 10.04l36.315 26.254c1.546.769 5.403 5.396.765 5.396L115.87 78.346c-.92.06-1.812.121-2.676.18h-.019ZM88.819 351.655V121.583c0-10.035 3.091-14.671 12.359-15.45l251.127-14.664c8.517-.772 12.374 4.636 12.374 14.664V334.66c0 10.045-1.549 18.55-15.463 19.315l-240.31 13.904c-13.908.765-20.087-3.86-20.087-16.225Zm237.234-217.73c1.541 6.956 0 13.905-6.968 14.687l-11.579 2.307v169.853c-10.053 5.404-19.323 8.492-27.048 8.492-12.368 0-15.466-3.863-24.73-15.438l-75.737-118.898v115.038l23.966 5.408s0 13.89-19.336 13.89l-53.304 3.093c-1.549-3.093 0-10.807 5.407-12.353l13.91-3.855v-152.1L131.32 162.5c-1.549-6.956 2.309-16.984 13.135-17.763l57.183-3.854 78.82 120.446V154.778l-20.096-2.306c-1.543-8.503 4.63-14.678 12.358-15.443l53.333-3.105Z" clip-rule="evenodd"/></svg>
