<svg xmlns="http://www.w3.org/2000/svg" data-name="Layer 1" viewBox="0 0 156.15 156.15"><path d="M142.8 0H13.35A13.36 13.36 0 0 0 0 13.36V142.8a13.35 13.35 0 0 0 13.35 13.35H142.8a13.35 13.35 0 0 0 13.35-13.35V13.36A13.36 13.36 0 0 0 142.8 0Z" style="fill:#192435"/><path d="M65.07 64.3C65.07 47.83 74 42 82.33 42c10.25 0 17.13 8.91 17.13 22.17C99.46 79.28 90.7 86 82.05 86c-11.68 0-16.98-11.25-16.98-21.7Zm21.38-41.7c-12.18 0-19.23 5.52-22.63 9.33-.41-3.28-2.55-7.55-10.93-7.55H34.7V43.6h7.45c1.27 0 1.68.41 1.68 1.68V133h21.68V97.64a28.74 28.74 0 0 0 20 7.46c21.19 0 36-17 36-41.25-.06-24.67-14.13-41.25-35.06-41.25Z" style="fill:#fff;fill-rule:evenodd"/></svg>
