<svg xmlns="http://www.w3.org/2000/svg" width="49" height="35" viewBox="0 0 49 35">
    <g fill="none" fill-rule="evenodd">
        <path fill="#00A1E0" fill-rule="nonzero" d="M20.303 3.799c1.577-1.63 3.764-2.652 6.183-2.652 3.225 0 6.02 1.792 7.526 4.462a10.547 10.547 0 0 1 4.247-.896c5.806 0 10.52 4.749 10.52 10.609S44.064 25.93 38.258 25.93a9.978 9.978 0 0 1-2.079-.215 7.688 7.688 0 0 1-6.702 3.943c-1.2 0-2.347-.287-3.369-.771-1.344 3.136-4.444 5.34-8.064 5.34a8.758 8.758 0 0 1-8.225-5.734 8.477 8.477 0 0 1-1.666.179c-4.498 0-8.136-3.692-8.136-8.225a8.25 8.25 0 0 1 4.068-7.132 9.358 9.358 0 0 1-.77-3.764C3.315 4.32 7.561.09 12.794.09a9.465 9.465 0 0 1 7.508 3.709z"/>
        <g fill="#FFF">
            <path fill-rule="nonzero" d="M7.06 17.795c-.035.071.018.09.018.107.09.072.18.108.287.161.502.27.968.34 1.452.34 1.003 0 1.63-.537 1.63-1.379v-.018c0-.788-.699-1.075-1.362-1.29l-.09-.036c-.5-.161-.931-.305-.931-.627v-.018c0-.287.25-.484.645-.484.43 0 .95.143 1.272.323 0 0 .09.053.126-.036.018-.054.18-.502.197-.556.018-.054-.018-.09-.054-.107-.376-.233-.896-.377-1.433-.377h-.108c-.914 0-1.559.556-1.559 1.344v.018c0 .843.699 1.111 1.362 1.29l.108.036c.483.144.896.27.896.61v.018c0 .304-.27.537-.7.537-.16 0-.698 0-1.29-.376-.071-.036-.107-.072-.16-.108-.037-.018-.108-.053-.126.054l-.18.574zM21.719 17.795c-.036.071.018.09.018.107.09.072.18.108.287.161.501.27.967.34 1.451.34 1.004 0 1.63-.537 1.63-1.379v-.018c0-.788-.698-1.075-1.361-1.29l-.09-.036c-.501-.161-.931-.305-.931-.627v-.018c0-.287.25-.484.645-.484.43 0 .95.143 1.272.323 0 0 .09.053.125-.036.018-.054.18-.502.198-.556.017-.054-.018-.09-.054-.107-.377-.233-.896-.377-1.434-.377h-.107c-.914 0-1.56.556-1.56 1.344v.018c0 .843.7 1.111 1.363 1.29l.107.036c.484.144.896.27.896.61v.018c0 .304-.269.537-.699.537-.161 0-.699 0-1.29-.376-.072-.036-.108-.072-.161-.108-.018-.018-.108-.035-.126.054l-.179.574zM32.543 15.214a2.274 2.274 0 0 0-.377-.717 1.911 1.911 0 0 0-.645-.484c-.25-.125-.555-.179-.896-.179-.34 0-.645.054-.896.18-.25.125-.466.286-.645.483a1.96 1.96 0 0 0-.376.717c-.09.269-.126.574-.126.896 0 .323.036.627.126.896s.215.52.376.717c.18.197.394.376.645.484.251.107.556.179.896.179.34 0 .645-.054.896-.18.251-.107.466-.286.645-.483a1.96 1.96 0 0 0 .377-.717c.09-.269.125-.573.125-.896 0-.322-.036-.627-.125-.896m-.825.896c0 .484-.09.86-.268 1.129-.18.269-.448.394-.807.394-.376 0-.627-.125-.806-.394-.18-.269-.269-.645-.269-1.129s.09-.86.269-1.129c.179-.269.43-.394.806-.394.377 0 .645.125.807.394.179.269.268.645.268 1.13"/>
            <path d="M39.406 17.508c-.036-.09-.107-.054-.107-.054-.126.054-.251.09-.395.108a3.524 3.524 0 0 1-.466.035c-.412 0-.716-.125-.95-.358-.232-.233-.358-.627-.358-1.147 0-.466.108-.824.323-1.093.197-.269.52-.412.932-.412.34 0 .609.036.878.125 0 0 .071.036.09-.053.071-.198.125-.34.196-.574.018-.072-.035-.09-.053-.09a4.842 4.842 0 0 0-.556-.143c-.179-.036-.394-.036-.627-.036-.358 0-.663.054-.932.18a2.127 2.127 0 0 0-.68.483 2.03 2.03 0 0 0-.413.717c-.09.269-.143.574-.143.896 0 .699.179 1.255.555 1.667.376.412.932.627 1.649.627.43 0 .86-.09 1.183-.215 0 0 .053-.036.035-.108l-.16-.555zM43.671 15.053a1.896 1.896 0 0 0-.358-.663c-.18-.197-.359-.34-.538-.412a1.905 1.905 0 0 0-.806-.162c-.359 0-.681.054-.932.18a1.653 1.653 0 0 0-.645.501c-.18.215-.305.448-.377.735-.09.287-.125.573-.125.896 0 .323.036.627.125.896.09.269.215.52.413.717.179.197.43.358.716.466a2.91 2.91 0 0 0 1.022.161c.824 0 1.254-.18 1.415-.287.036-.018.054-.053.018-.143l-.179-.52c-.036-.071-.107-.054-.107-.054-.197.072-.484.216-1.165.216-.43 0-.77-.126-.968-.341-.215-.215-.304-.52-.322-.932h2.831s.072 0 .09-.071c-.018 0 .071-.538-.108-1.183zm-2.813.591c.035-.269.107-.484.233-.663.179-.269.43-.412.806-.412.376 0 .61.143.788.412.126.18.162.412.18.663h-2.007zM21.038 15.053a1.896 1.896 0 0 0-.358-.663c-.18-.197-.359-.34-.538-.412a1.905 1.905 0 0 0-.806-.162c-.359 0-.681.054-.932.18a1.653 1.653 0 0 0-.645.501c-.18.215-.305.448-.377.735-.09.287-.125.573-.125.896 0 .323.036.627.125.896.09.269.215.52.413.717.179.197.43.358.716.466a2.91 2.91 0 0 0 1.022.161c.824 0 1.254-.18 1.415-.287.036-.018.054-.053.018-.143l-.179-.52c-.036-.071-.107-.054-.107-.054-.197.072-.484.216-1.165.216-.43 0-.77-.126-.968-.341-.215-.215-.304-.52-.322-.932h2.831s.072 0 .09-.071c-.018 0 .071-.538-.108-1.183zm-2.813.591c.035-.269.107-.484.233-.663.179-.269.43-.412.806-.412.376 0 .61.143.788.412.108.18.162.412.18.663h-2.007z"/>
            <path fill-rule="nonzero" d="M13.243 15.5c-.108 0-.269-.017-.448-.017-.251 0-.484.036-.699.09a1.771 1.771 0 0 0-.591.268 1.46 1.46 0 0 0-.413.466c-.107.18-.143.412-.143.645 0 .251.036.466.126.645.09.18.215.323.376.448.161.108.358.198.573.251.215.054.466.072.753.072s.573-.018.86-.072c.269-.053.61-.107.717-.143.09-.018.197-.054.197-.054.072-.018.072-.09.072-.09v-2.58c0-.573-.144-.985-.448-1.254-.305-.251-.735-.395-1.29-.395-.216 0-.556.036-.753.072 0 0-.61.126-.878.323 0 0-.054.036-.018.107l.197.538c.018.072.09.054.09.054s.017 0 .053-.018c.538-.287 1.237-.287 1.237-.287.304 0 .537.054.699.18.161.125.233.304.233.68v.126c-.287-.018-.502-.054-.502-.054zm-1.13 1.99a.647.647 0 0 1-.16-.161.728.728 0 0 1-.09-.377c0-.25.09-.43.25-.555 0 0 .252-.215.825-.197.412 0 .77.071.77.071v1.29s-.358.072-.77.108c-.573.018-.824-.18-.824-.18z"/>
            <path d="M36.037 14.05c.018-.072-.018-.09-.036-.108a1.946 1.946 0 0 0-.466-.072c-.358-.018-.555.036-.734.126-.18.071-.377.215-.484.358v-.34c0-.054-.036-.09-.09-.09h-.717c-.053 0-.09.036-.09.09v4.21c0 .054.037.09.09.09h.735c.054 0 .09-.036.09-.09V16.11c0-.287.036-.573.09-.735a.852.852 0 0 1 .25-.412.782.782 0 0 1 .34-.215c.126-.036.27-.054.377-.054.143 0 .305.036.305.036.053 0 .09-.036.107-.071a5.71 5.71 0 0 0 .233-.61zM29.066 12.096a1.342 1.342 0 0 0-.286-.072 2.237 2.237 0 0 0-.377-.036c-.52 0-.914.144-1.2.43-.287.287-.466.717-.574 1.29l-.036.198h-.645s-.072 0-.09.09l-.107.59c0 .055.018.09.09.09h.627l-.627 3.53c-.054.287-.108.52-.162.7-.053.179-.125.304-.197.394a.539.539 0 0 1-.25.197.97.97 0 0 1-.341.054c-.072 0-.161-.018-.233-.018-.072-.018-.108-.036-.161-.054 0 0-.072-.036-.108.054-.018.054-.197.52-.215.573-.018.054 0 .108.036.108.09.036.143.054.25.071.162.036.288.036.413.036.269 0 .502-.036.699-.107.197-.072.376-.197.52-.359.16-.179.268-.376.358-.627.09-.25.18-.573.25-.95l.646-3.602h.932s.071 0 .09-.09l.107-.59c0-.054-.018-.09-.09-.09h-.896c0-.018.054-.34.144-.645a.75.75 0 0 1 .197-.305.462.462 0 0 1 .233-.143c.09-.036.197-.036.304-.036.09 0 .162.018.233.018.09.018.126.036.144.036.09.036.107 0 .125-.036l.215-.591c.054-.072 0-.09-.018-.108zM16.433 18.207c0 .053-.036.09-.09.09h-.753c-.053 0-.09-.037-.09-.09v-6.021c0-.054.037-.09.09-.09h.753c.054 0 .09.036.09.09v6.02z"/>
        </g>
    </g>
</svg>
