<svg xmlns="http://www.w3.org/2000/svg" width="46" height="49" fill="none"><path fill="#52BD94" d="M44.361 16.141h-25.72a.888.888 0 0 0-.888.889v2.994c0 .49.398.889.888.889h25.72c.49 0 .888-.398.888-.889V17.03a.888.888 0 0 0-.888-.889ZM27.348 28.063H1.628a.888.888 0 0 0-.888.889v2.994c0 .49.398.888.889.888h25.72c.49 0 .888-.397.888-.888v-2.994a.888.888 0 0 0-.889-.889Z"/><path fill="#52BD94" fill-rule="evenodd" d="M4.04 19.406a.891.891 0 0 0 1.08-.621A18.768 18.768 0 0 1 27.047 6.17a.882.882 0 0 0 1.031-.64l.777-2.898a.891.891 0 0 0-.674-1.096A23.533 23.533 0 0 0 .535 17.526a.888.888 0 0 0 .622 1.107l2.882.773ZM41.957 29.557a.895.895 0 0 0-1.093.622 18.768 18.768 0 0 1-21.927 12.63.88.88 0 0 0-1.032.64l-.76 2.882a.89.89 0 0 0 .673 1.1 23.545 23.545 0 0 0 27.646-15.994.883.883 0 0 0-.621-1.103l-2.886-.777Z" clip-rule="evenodd"/><path fill="#52BD94" d="M36.59 10.904a2.615 2.615 0 1 0 0-5.23 2.615 2.615 0 0 0 0 5.23ZM9.407 43.3a2.615 2.615 0 1 0 0-5.232 2.615 2.615 0 0 0 0 5.231Z"/></svg>
