<svg xmlns="http://www.w3.org/2000/svg" width="359" height="99" viewBox="0 0 181 50"><path d="M.168 48.82V1.203h12.297v3.79C16.133 1.913 20.98.136 25.828.136c6.266 0 12.297 2.84 16.438 7.699 3.191 3.789 4.847 8.527 4.847 16.7V48.82h-12.77V23.59c.352-3.317-.593-6.516-2.718-9.004-2.012-1.777-4.496-2.723-7.215-2.606-4.492.118-8.75 2.25-11.473 5.805V48.82" style="stroke:none;fill-rule:evenodd;fill:#293e40;fill-opacity:1"/><path d="M79.75 41.95c-3.664.116-7.215-1.423-9.816-4.028-2.602-2.606-4.02-6.16-4.02-9.832-.238-5.094 2.363-9.95 6.738-12.555a13.537 13.537 0 0 1 14.309 0c4.375 2.606 6.86 7.461 6.625 12.555a13.32 13.32 0 0 1-3.902 9.832c-2.602 2.726-6.149 4.144-9.934 4.027Zm0-41.813c-11.352 0-21.64 6.988-25.777 17.531-4.258 10.66-1.657 22.742 6.62 30.559 2.012 1.894 5.087 2.132 7.212.476a19.486 19.486 0 0 1 23.652 0c2.246 1.656 5.203 1.418 7.211-.476a28.042 28.042 0 0 0 6.742-30.442C101.27 7.242 91.102.254 79.75.137Zm0 0" style="stroke:none;fill-rule:evenodd;fill:#81b5a1;fill-opacity:1"/><path d="M132.488 48.82h-9.46L104.108 1.203h12.653l10.406 27.242 10.168-27.242h10.523l10.051 27.242 10.406-27.242h12.653L162.168 48.82h-9.461l-10.168-27.125Zm0 0" style="stroke:none;fill-rule:evenodd;fill:#293e40;fill-opacity:1"/></svg>
