<?xml version="1.0" encoding="UTF-8"?>
<svg id="Layer_1" data-name="Layer 1" xmlns="http://www.w3.org/2000/svg" viewBox="0 0 125.7 125.6">
  <defs>
    <style>
      .cls-1 {
        fill: #36c5f0;
      }

      .cls-1, .cls-2, .cls-3, .cls-4 {
        stroke-width: 0px;
      }

      .cls-2 {
        fill: #e01e5a;
      }

      .cls-3 {
        fill: #2eb67d;
      }

      .cls-4 {
        fill: #ecb22e;
      }
    </style>
  </defs>
  <path class="cls-2" d="m26.5,79.4c0,7.3-5.9,13.2-13.2,13.2S.1,86.7.1,79.4s5.9-13.2,13.2-13.2h13.2v13.2Zm6.6,0c0-7.3,5.9-13.2,13.2-13.2s13.2,5.9,13.2,13.2v33c0,7.3-5.9,13.2-13.2,13.2s-13.2-5.9-13.2-13.2v-33Z"/>
  <path class="cls-1" d="m46.3,26.4c-7.3,0-13.2-5.9-13.2-13.2S39,0,46.3,0s13.2,5.9,13.2,13.2v13.2h-13.2Zm0,6.7c7.3,0,13.2,5.9,13.2,13.2s-5.9,13.2-13.2,13.2H13.2c-7.3,0-13.2-5.9-13.2-13.2s5.9-13.2,13.2-13.2h33.1Z"/>
  <path class="cls-3" d="m99.2,46.3c0-7.3,5.9-13.2,13.2-13.2s13.2,5.9,13.2,13.2-5.9,13.2-13.2,13.2h-13.2v-13.2Zm-6.6,0c0,7.3-5.9,13.2-13.2,13.2s-13.2-5.9-13.2-13.2V13.2c0-7.3,5.9-13.2,13.2-13.2s13.2,5.9,13.2,13.2c0,0,0,33.1,0,33.1Z"/>
  <path class="cls-4" d="m79.4,99.2c7.3,0,13.2,5.9,13.2,13.2s-5.9,13.2-13.2,13.2-13.2-5.9-13.2-13.2v-13.2h13.2Zm0-6.6c-7.3,0-13.2-5.9-13.2-13.2s5.9-13.2,13.2-13.2h33.1c7.3,0,13.2,5.9,13.2,13.2s-5.9,13.2-13.2,13.2h-33.1Z"/>
</svg>