<svg xmlns="http://www.w3.org/2000/svg" width="64" height="64" fill="none"><path fill="url(#a)" fill-rule="evenodd" d="M55.8.77H8.2A7.442 7.442 0 0 0 .768 8.2v47.602A7.442 7.442 0 0 0 8.2 63.233h47.6a7.442 7.442 0 0 0 7.432-7.431V8.2A7.44 7.44 0 0 0 55.8.77ZM27.675 45.757a2.471 2.471 0 0 1-2.47 2.47H14.77a2.47 2.47 0 0 1-2.47-2.47V14.77a2.47 2.47 0 0 1 2.47-2.47h10.434a2.47 2.47 0 0 1 2.47 2.47v30.986ZM51.7 31.53a2.47 2.47 0 0 1-2.47 2.521H38.796a2.47 2.47 0 0 1-2.47-2.47v-16.81a2.47 2.47 0 0 1 2.47-2.47H49.23a2.47 2.47 0 0 1 2.47 2.47V31.53Z" clip-rule="evenodd"/><defs><linearGradient id="a" x1="32" x2="32" y1="63.233" y2=".77" gradientUnits="userSpaceOnUse"><stop stop-color="#0052CC"/><stop offset="1" stop-color="#2684FF"/></linearGradient></defs></svg>
