<svg xmlns="http://www.w3.org/2000/svg" width="203" height="154" fill="none"><g clip-path="url(#a)"><path fill="#03363D" d="M93.82 40.5v112.86H.34L93.82 40.5Zm0-40.5A46.74 46.74 0 0 1 .34 0h93.48Zm15.4 153.37a46.737 46.737 0 0 1 46.74-46.74 46.737 46.737 0 0 1 46.74 46.74h-93.48Zm0-40.5V0h93.5l-93.5 112.86v.01Zm52.28 137.06a18.224 18.224 0 0 0 12.95-5l6.42 6.93c-4.24 4.36-10.12 7.6-19.26 7.6-15.67 0-25.8-10.4-25.8-24.46a23.994 23.994 0 0 1 6.99-17.409 24.006 24.006 0 0 1 17.38-7.061c15.56 0 24.38 11.84 23.6 28.26H147c1.3 6.82 6.1 11.17 14.47 11.17l.03-.03Zm11.17-18.97c-1-6.37-4.8-11.06-12.4-11.06-7.07 0-12 4-13.27 11.06h25.68-.01ZM-80 249.4l28.3-28.76h-27.63v-9.02h40.76v9.2l-28.3 28.75h28.7v9.03H-80v-9.2Zm73.6.52a18.223 18.223 0 0 0 12.95-5l6.42 6.93c-4.24 4.36-10.12 7.6-19.26 7.6-15.67 0-25.8-10.4-25.8-24.46a24.005 24.005 0 0 1 14.962-22.708 24.009 24.009 0 0 1 9.408-1.762c15.56 0 24.38 11.84 23.6 28.26h-36.76c1.3 6.82 6.1 11.17 14.47 11.17l.01-.03Zm11.19-18.97c-1-6.37-4.8-11.06-12.4-11.06-7.07 0-12 4-13.27 11.06H4.8h-.01Zm72.23 4.03c0-15 11.23-24.44 23.6-24.44a20.331 20.331 0 0 1 15.67 7.05v-27.72h10v68.6h-10V252a20.09 20.09 0 0 1-15.76 7.42c-12 0-23.5-9.5-23.5-24.43l-.01-.01Zm39.83-.09a14.92 14.92 0 1 0-14.91 15.32c8.6 0 14.9-6.86 14.9-15.32h.01Zm73.47 13.6 9.06-4.7a13.444 13.444 0 0 0 12.08 6.86c5.66 0 8.6-2.9 8.6-6.2 0-3.76-5.47-4.6-11.42-5.83-8-1.7-16.33-4.33-16.33-14 0-7.43 7.07-14.3 18.2-14.2 8.77 0 15.3 3.48 19 9.1l-8.4 4.6a12.183 12.183 0 0 0-10.57-5.36c-5.38 0-8.12 2.63-8.12 5.64 0 3.38 4.34 4.32 11.14 5.83 7.74 1.7 16.5 4.23 16.5 14 0 6.48-5.66 15.22-19.06 15.13-9.8 0-16.7-3.95-20.67-10.9l-.01.03Zm66.91-10.9-7.93 8.65v12.2h-10v-68.6h10v44.93l21.23-23.3h12.18l-18.4 20.1 18.88 26.88h-11.32l-14.63-20.86h-.01ZM46.8 210.53c-11.9 0-21.85 7.7-21.85 20.5v27.45h10.2V232.3c0-7.7 4.43-12.32 12-12.32s11.33 4.6 11.33 12.32v26.18h10.14v-27.45c0-12.78-10-20.5-21.85-20.5"/></g><defs><clipPath id="a"><path fill="#fff" d="M0 0h203v154H0z"/></clipPath></defs></svg>
