<svg xmlns="http://www.w3.org/2000/svg" width="300" height="104" fill="none"><defs xmlns="http://www.w3.org/2000/svg"><linearGradient id="a" x1="262.15" x2="262.15" y1="198.72" y2="279.05" gradientTransform="matrix(1 0 0 -1 0 302)" gradientUnits="userSpaceOnUse"><stop offset="0" stop-color="#fab51c"/><stop offset=".8" stop-color="#f4e705"/></linearGradient><linearGradient id="b" x1="222.48" x2="154.66" y1="208.09" y2="275.91" gradientTransform="matrix(1 0 0 -1 0 302)" gradientUnits="userSpaceOnUse"><stop offset="0" stop-color="#0a74b2"/><stop offset=".8" stop-color="#137fc1"/></linearGradient><linearGradient id="c" x1="134.2" x2="92.67" y1="285.68" y2="213.73" gradientTransform="matrix(1 0 0 -1 0 302)" gradientUnits="userSpaceOnUse"><stop offset="0" stop-color="#1aa34a"/><stop offset=".8" stop-color="#008d54"/></linearGradient><linearGradient id="d" x1="46.49" x2="31.88" y1="204.14" y2="286.98" gradientTransform="matrix(1 0 0 -1 0 302)" gradientUnits="userSpaceOnUse"><stop offset="0" stop-color="#bd2337"/><stop offset=".8" stop-color="#dd2034"/></linearGradient></defs><path fill="url('#a')" d="m224.98 33.823 9.99-10.97h64.35v70.79l-9.63 9.54h-64.71v-69.36Z"/><path fill="url('#b')" d="m218.56 17.063 8.43 63.7-4.99 13.54-62.98 8.88-8.13-62.04 4.07-15.44 63.6-8.64Z"/><path fill="url('#c')" d="m157.39 46.173-4.73-19.29L95.08.723 66.2 70.133l8.05 7.41 57.55 26.12 25.59-57.49Z"/><path fill="#F4ED74" d="M299.32 22.853h-64.35l-9.99 10.97 64.67.2 9.67-11.17Z"/><path fill="#E89123" d="m299.32 22.853-9.67 11.17.04 69.16 9.63-9.54v-70.79Z"/><path fill="#90C9ED" d="m218.56 17.063-63.6 8.64-4.07 15.44 62.36-8.88 5.31-15.2Z"/><path fill="#1799D5" d="m218.56 17.063-5.31 15.2 8.75 62.04 4.99-13.54-8.43-63.7Z"/><path fill="#67BE6C" d="m74.25 77.543 1.71.77 24.87-57.81L95.08.723 66.2 70.133l8.05 7.41Z"/><path fill="#95CF9F" d="m95.08.723 5.75 19.78 56.56 25.67-4.73-19.29L95.08.723Z"/><path fill="url('#d')" d="m.68 41.883 4.31-22.22 62.88-9.71 9.3 61.62-4.16 21.52-62.46 9.98-9.87-61.19Z"/><path fill="#EE453D" d="m67.87 9.953-62.88 9.71-4.31 22.22 63.17-9.87 4.02-22.06Z"/><path fill="#761116" d="m67.87 9.953-4.02 22.06 9.16 61.08 4.16-21.52-9.3-61.62Z"/><path fill="#fff" d="M256.29 42.443c-14.41 0-26.07 12.1-26.07 27s11.68 27 26.07 27 26.07-12.1 26.07-27-11.66-27-26.07-27Zm0 43.8c-7.9 0-14.31-7.51-14.31-16.77s6.41-16.77 14.31-16.77 14.31 7.51 14.31 16.77-6.4 16.77-14.31 16.77Zm-128.66-49.41c-12.81-5.63-28.18 1.13-34.32 15.07-6.14 13.94-.74 29.87 12.09 35.5 12.83 5.63 28.16-1.1 34.3-15.1 6.14-14 .75-29.83-12.07-35.47Zm-18.08 41c-7-3.11-9.63-12.63-5.83-21.3 3.8-8.67 11.41-14.2 19.82-10.78s9.51 13.3 5.71 22-12.61 13.15-19.7 10.09v-.01Zm58.06-34.85a5.47 5.47 0 0 1 6.23 4.57l6.69 43.53a5.469 5.469 0 0 1-4.53 6.24 5.47 5.47 0 0 1-6.23-4.57L163 49.213a5.464 5.464 0 0 1 4.61-6.23Zm28.63-4.08a5.47 5.47 0 0 1 6.23 4.57l6.69 43.53a5.47 5.47 0 0 1-4.57 6.23 5.47 5.47 0 0 1-6.23-4.57l-6.69-43.53a5.47 5.47 0 0 1 4.57-6.23Z"/><path fill="#fff" d="m199.067 60.988-27.912 4.29 1.436 9.34 27.912-4.29-1.436-9.34ZM40.81 83.453c4.94-.89 16-3.62 17.14 2 1.24 6.45-7.04 6.37-18.41 8.76-11.59 2.33-18.99 5-18.67-7 .26-8.21 3.41-12.84 7-17.46 1.55-2.14 3.14-4.25 4.77-6.33l.1-.12c.58-.76 1.1-1.42 1.58-2 2.59-3.17 5.24-6.19 5.4-10.93 0 0-4.1.59-9.05 1.51-4.95.92-13.59 3.43-14.73-2.19-1.19-5.79 4.55-6.09 15.96-8.14 11.41-2.05 18.67-4.5 18.67 7 0 9.22-4.09 13.97-8.24 19.16l-.112.149c-1.71 2.265-3.336 4.422-4.638 6.321-2.53 3.7-5.18 6.3-5.77 10.9l9-1.63Z"/></svg>
